<svg width="233" height="48" viewBox="0 0 233 48" fill="none" xmlns="http://www.w3.org/2000/svg">
<path d="M1.98864 39V17.1818H9.43182V21.3295H9.65909C10.1136 19.9659 10.8902 18.8864 11.9886 18.0909C13.0871 17.2955 14.3939 16.8977 15.9091 16.8977C17.4432 16.8977 18.7642 17.3049 19.8722 18.1193C20.9801 18.9242 21.6477 19.9943 21.875 21.3295H22.1023C22.4716 19.9943 23.2576 18.9242 24.4602 18.1193C25.6629 17.3049 27.0739 16.8977 28.6932 16.8977C30.786 16.8977 32.4811 17.5701 33.7784 18.9148C35.0852 20.2595 35.7386 22.0492 35.7386 24.2841V39H27.8977V26.2727C27.8977 25.3163 27.6563 24.5682 27.1733 24.0284C26.6903 23.4792 26.0417 23.2045 25.2273 23.2045C24.4223 23.2045 23.7831 23.4792 23.3097 24.0284C22.8456 24.5682 22.6136 25.3163 22.6136 26.2727V39H15.1136V26.2727C15.1136 25.3163 14.8722 24.5682 14.3892 24.0284C13.9063 23.4792 13.2576 23.2045 12.4432 23.2045C11.9034 23.2045 11.4394 23.3277 11.0511 23.5739C10.6629 23.8201 10.3598 24.1752 10.142 24.6392C9.93371 25.0937 9.82955 25.6383 9.82955 26.2727V39H1.98864ZM43.5973 47.1818C42.6977 47.1818 41.8407 47.1108 41.0263 46.9688C40.2119 46.8362 39.4969 46.6515 38.8814 46.4148L40.5859 40.8466C41.2299 41.0739 41.817 41.2206 42.3473 41.2869C42.8871 41.3532 43.3464 41.3153 43.7251 41.1733C44.1134 41.0313 44.3928 40.7614 44.5632 40.3636L44.7337 39.9659L37.0632 17.1818H45.245L48.7678 32.2955H48.995L52.5746 17.1818H60.8132L52.8587 40.8182C52.4609 42.0208 51.8833 43.1004 51.1257 44.0568C50.3776 45.0227 49.3928 45.785 48.1712 46.3438C46.9496 46.9025 45.425 47.1818 43.5973 47.1818ZM84.0234 17.1818V22.8636H69.6484V17.1818H84.0234ZM72.4325 11.9545H80.2734V31.983C80.2734 32.286 80.3255 32.5417 80.4297 32.75C80.5339 32.9489 80.6948 33.1004 80.9126 33.2045C81.1304 33.2992 81.4098 33.3466 81.7507 33.3466C81.9875 33.3466 82.2621 33.3182 82.5746 33.2614C82.8965 33.2045 83.1333 33.1572 83.2848 33.1193L84.4212 38.6307C84.0708 38.7348 83.5689 38.8627 82.9155 39.0142C82.2715 39.1657 81.5045 39.2652 80.6143 39.3125C78.8151 39.4072 77.3047 39.2225 76.0831 38.7585C74.8615 38.285 73.9429 37.5417 73.3274 36.5284C72.7119 35.5152 72.4136 34.2462 72.4325 32.7216V11.9545ZM97.5 39.3977C95.1326 39.3977 93.1061 38.929 91.4205 37.9915C89.7348 37.0445 88.4422 35.7282 87.5426 34.0426C86.643 32.3475 86.1932 30.3826 86.1932 28.1477C86.1932 25.9129 86.643 23.9527 87.5426 22.267C88.4422 20.572 89.7348 19.2557 91.4205 18.3182C93.1061 17.3712 95.1326 16.8977 97.5 16.8977C99.8674 16.8977 101.894 17.3712 103.58 18.3182C105.265 19.2557 106.558 20.572 107.457 22.267C108.357 23.9527 108.807 25.9129 108.807 28.1477C108.807 30.3826 108.357 32.3475 107.457 34.0426C106.558 35.7282 105.265 37.0445 103.58 37.9915C101.894 38.929 99.8674 39.3977 97.5 39.3977ZM97.5568 33.6023C98.2197 33.6023 98.7926 33.3797 99.2756 32.9347C99.7585 32.4896 100.133 31.8551 100.398 31.0312C100.663 30.2074 100.795 29.2273 100.795 28.0909C100.795 26.9451 100.663 25.965 100.398 25.1506C100.133 24.3267 99.7585 23.6922 99.2756 23.2472C98.7926 22.8021 98.2197 22.5795 97.5568 22.5795C96.8561 22.5795 96.2547 22.8021 95.7528 23.2472C95.2509 23.6922 94.8674 24.3267 94.6023 25.1506C94.3371 25.965 94.2045 26.9451 94.2045 28.0909C94.2045 29.2273 94.3371 30.2074 94.6023 31.0312C94.8674 31.8551 95.2509 32.4896 95.7528 32.9347C96.2547 33.3797 96.8561 33.6023 97.5568 33.6023ZM178.58 9.90909V39H170.739V9.90909H178.58ZM182.575 39V17.1818H190.415V39H182.575ZM186.495 14.9091C185.434 14.9091 184.525 14.5587 183.768 13.858C183.01 13.1572 182.631 12.3144 182.631 11.3295C182.631 10.3447 183.01 9.50189 183.768 8.80114C184.525 8.10038 185.434 7.75 186.495 7.75C187.565 7.75 188.474 8.10038 189.222 8.80114C189.98 9.50189 190.359 10.3447 190.359 11.3295C190.359 12.3144 189.98 13.1572 189.222 13.858C188.474 14.5587 187.565 14.9091 186.495 14.9091ZM214.354 24.2841H207.138C207.1 23.839 206.944 23.4555 206.669 23.1335C206.394 22.8116 206.039 22.5653 205.604 22.3949C205.178 22.215 204.704 22.125 204.183 22.125C203.511 22.125 202.933 22.2481 202.45 22.4943C201.967 22.7405 201.731 23.0909 201.74 23.5455C201.731 23.8674 201.868 24.1657 202.152 24.4403C202.446 24.715 203.009 24.928 203.842 25.0795L208.274 25.875C210.509 26.2822 212.171 26.9687 213.26 27.9347C214.358 28.8911 214.912 30.1742 214.922 31.7841C214.912 33.3371 214.448 34.6866 213.53 35.8324C212.621 36.9687 211.375 37.8494 209.794 38.4744C208.222 39.09 206.428 39.3977 204.411 39.3977C201.077 39.3977 198.468 38.7159 196.584 37.3523C194.709 35.9886 193.662 34.1894 193.445 31.9545H201.229C201.333 32.6458 201.674 33.1809 202.251 33.5597C202.839 33.929 203.577 34.1136 204.467 34.1136C205.187 34.1136 205.779 33.9905 206.243 33.7443C206.716 33.4981 206.958 33.1477 206.967 32.6932C206.958 32.2765 206.75 31.9451 206.342 31.6989C205.945 31.4527 205.32 31.2538 204.467 31.1023L200.604 30.4205C198.378 30.0322 196.712 29.2936 195.604 28.2045C194.496 27.1155 193.946 25.714 193.956 24C193.946 22.4848 194.344 21.2017 195.149 20.1506C195.964 19.09 197.124 18.285 198.629 17.7358C200.144 17.1771 201.939 16.8977 204.013 16.8977C207.166 16.8977 209.652 17.5511 211.47 18.858C213.298 20.1648 214.259 21.9735 214.354 24.2841ZM230.938 17.1818V22.8636H216.562V17.1818H230.938ZM219.347 11.9545H227.188V31.983C227.188 32.286 227.24 32.5417 227.344 32.75C227.448 32.9489 227.609 33.1004 227.827 33.2045C228.045 33.2992 228.324 33.3466 228.665 33.3466C228.902 33.3466 229.176 33.3182 229.489 33.2614C229.811 33.2045 230.047 33.1572 230.199 33.1193L231.335 38.6307C230.985 38.7348 230.483 38.8627 229.83 39.0142C229.186 39.1657 228.419 39.2652 227.528 39.3125C225.729 39.4072 224.219 39.2225 222.997 38.7585C221.776 38.285 220.857 37.5417 220.241 36.5284C219.626 35.5152 219.328 34.2462 219.347 32.7216V11.9545Z" fill="#4EA8DE"/>
<path d="M119.886 39.2841C118.333 39.2841 116.903 38.8769 115.597 38.0625C114.299 37.2481 113.258 36.0123 112.472 34.3551C111.695 32.6979 111.307 30.6098 111.307 28.0909C111.307 25.4583 111.714 23.3182 112.528 21.6705C113.352 20.0227 114.413 18.8153 115.71 18.0483C117.017 17.2812 118.39 16.8977 119.83 16.8977C120.909 16.8977 121.856 17.0871 122.67 17.4659C123.485 17.8352 124.167 18.3324 124.716 18.9574C125.265 19.5729 125.682 20.25 125.966 20.9886H126.08V9.90909H133.92V39H126.136V35.4205H125.966C125.663 36.1591 125.227 36.822 124.659 37.4091C124.1 37.9867 123.419 38.446 122.614 38.7869C121.818 39.1184 120.909 39.2841 119.886 39.2841ZM122.784 33.2614C123.504 33.2614 124.119 33.053 124.631 32.6364C125.152 32.2102 125.549 31.6136 125.824 30.8466C126.108 30.0701 126.25 29.1515 126.25 28.0909C126.25 27.0114 126.108 26.0881 125.824 25.321C125.549 24.5445 125.152 23.9527 124.631 23.5455C124.119 23.1288 123.504 22.9205 122.784 22.9205C122.064 22.9205 121.449 23.1288 120.938 23.5455C120.436 23.9527 120.047 24.5445 119.773 25.321C119.508 26.0881 119.375 27.0114 119.375 28.0909C119.375 29.1705 119.508 30.0985 119.773 30.875C120.047 31.642 120.436 32.2339 120.938 32.6506C121.449 33.0578 122.064 33.2614 122.784 33.2614ZM148.281 39.3977C145.914 39.3977 143.887 38.929 142.202 37.9915C140.516 37.0445 139.223 35.7282 138.324 34.0426C137.424 32.3475 136.974 30.3826 136.974 28.1477C136.974 25.9129 137.424 23.9527 138.324 22.267C139.223 20.572 140.516 19.2557 142.202 18.3182C143.887 17.3712 145.914 16.8977 148.281 16.8977C150.649 16.8977 152.675 17.3712 154.361 18.3182C156.046 19.2557 157.339 20.572 158.239 22.267C159.138 23.9527 159.588 25.9129 159.588 28.1477C159.588 30.3826 159.138 32.3475 158.239 34.0426C157.339 35.7282 156.046 37.0445 154.361 37.9915C152.675 38.929 150.649 39.3977 148.281 39.3977ZM148.338 33.6023C149.001 33.6023 149.574 33.3797 150.057 32.9347C150.54 32.4896 150.914 31.8551 151.179 31.0312C151.444 30.2074 151.577 29.2273 151.577 28.0909C151.577 26.9451 151.444 25.965 151.179 25.1506C150.914 24.3267 150.54 23.6922 150.057 23.2472C149.574 22.8021 149.001 22.5795 148.338 22.5795C147.637 22.5795 147.036 22.8021 146.534 23.2472C146.032 23.6922 145.649 24.3267 145.384 25.1506C145.118 25.965 144.986 26.9451 144.986 28.0909C144.986 29.2273 145.118 30.2074 145.384 31.0312C145.649 31.8551 146.032 32.4896 146.534 32.9347C147.036 33.3797 147.637 33.6023 148.338 33.6023Z" fill="#5E60CE"/>
</svg>
