<svg width="40" height="44" viewBox="0 0 40 44" fill="none" xmlns="http://www.w3.org/2000/svg">
<g clip-path="url(#clip0_12_136)">
<path d="M28.5564 9.5983C28.8829 14.639 27.4845 19.6163 24.5891 23.7189L23.9099 24.7065L24.4039 25.8079C25.0446 27.2276 25.1543 28.8216 24.7131 30.2993C24.5439 29.8111 24.3441 29.3335 24.1147 28.8694L22.724 26.0387L20.5508 28.3263C20.3595 28.5289 20.1575 28.7213 19.9457 28.9027L13.5969 24.5357C13.7023 24.1804 13.8253 23.8371 13.9623 23.4864L15.0472 20.8097L12.1593 20.5348C11.6762 20.4899 11.1912 20.4734 10.7069 20.4856C11.927 19.5642 13.4337 19.0906 14.9763 19.1436L16.1403 19.1826L16.7716 18.2648C19.6202 14.1546 23.7635 11.1106 28.5623 9.60236L28.5564 9.5983ZM30.2245 7.18581C30.0918 7.09505 29.9314 7.05457 29.7727 7.07185L29.6876 7.08179C23.7082 8.48786 18.4867 12.0327 15.0114 17.0455C12.9332 16.9746 10.9067 17.6319 9.28602 18.9025C7.66532 20.1731 6.55349 21.9762 6.14483 23.9967C7.89577 22.9538 9.94121 22.492 11.9896 22.6771C11.7032 23.4107 11.4743 24.1659 11.305 24.9361C11.2564 25.0731 11.2547 25.2229 11.3001 25.3623C11.3455 25.5018 11.4356 25.6232 11.5563 25.708L19.7461 31.3412C19.9113 31.4548 20.1844 31.4116 20.4348 31.2245C21.0672 30.8165 21.6456 30.332 22.1571 29.782C23.0679 31.6271 23.3684 33.7041 23.0153 35.7121C24.7909 34.6431 26.1068 32.9642 26.7188 30.9868C27.3308 29.0094 27.1974 26.8679 26.3433 24.9597C29.8787 19.9447 31.3636 13.761 30.5018 7.64187C30.4894 7.55019 30.4577 7.46185 30.4089 7.38258C30.3601 7.30332 30.2953 7.2349 30.2186 7.18175L30.2245 7.18581Z" fill="#4EA8DE"/>
<path d="M21.0606 20.496C20.6074 20.1843 20.2552 19.7474 20.0484 19.2405C19.8416 18.7336 19.7895 18.1794 19.8986 17.6477C20.0076 17.1159 20.2731 16.6305 20.6614 16.2526C21.0497 15.8747 21.5435 15.6212 22.0806 15.524C22.6177 15.4269 23.174 15.4905 23.6793 15.7068C24.1847 15.9231 24.6166 16.2824 24.9205 16.7394C25.2244 17.1965 25.3867 17.7308 25.387 18.275C25.3873 18.8193 25.2256 19.3491 24.9222 19.7977V19.7977C24.7303 20.0916 24.4816 20.3443 24.1901 20.5413C23.8986 20.7382 23.5702 20.8755 23.2234 20.9454C22.8767 21.0152 22.5186 21.0162 22.1694 20.9484C21.8203 20.8805 21.4871 20.7451 21.1887 20.5499C21.1475 20.5302 21.1097 20.5042 21.0766 20.4728L21.0606 20.496Z" fill="#4EA8DE"/>
<path d="M17.7717 32.1139C17.6273 32.0077 17.4634 31.931 17.2897 31.8882C17.1159 31.8454 16.9359 31.8374 16.76 31.8647C16.5842 31.892 16.4161 31.954 16.2656 32.0472C16.1152 32.1403 15.9854 32.2626 15.8839 32.407L13.5264 35.8343C13.3208 36.1332 13.2443 36.5028 13.3136 36.8618C13.3829 37.2208 13.5924 37.5398 13.896 37.7486C14.1995 37.9575 14.5724 38.039 14.9324 37.9753C15.2924 37.9116 15.6102 37.7079 15.8158 37.4091L18.1413 34.0282C18.2456 33.8866 18.3203 33.7253 18.3609 33.5538C18.4015 33.3822 18.4073 33.2039 18.3778 33.0291C18.3484 32.8543 18.2843 32.6866 18.1894 32.5358C18.0944 32.3849 17.9705 32.2539 17.8248 32.1504L17.7717 32.1139Z" fill="#5E60CE"/>
<path d="M11.3992 27.7307C11.2545 27.6196 11.0891 27.5383 10.9131 27.4916C10.737 27.4448 10.5538 27.4337 10.3744 27.4588C10.1949 27.4838 10.0229 27.5446 9.86857 27.6375C9.71423 27.7304 9.58072 27.8535 9.47596 27.9995L7.11853 31.4268C6.91294 31.7257 6.83638 32.0953 6.90568 32.4543C6.97498 32.8133 7.18446 33.1323 7.48805 33.3411C7.79164 33.5499 8.16446 33.6314 8.5245 33.5678C8.88454 33.5041 9.2023 33.3004 9.40789 33.0015L11.7334 29.6206C11.8377 29.479 11.9124 29.3177 11.953 29.1462C11.9936 28.9747 11.9994 28.7963 11.9699 28.6216C11.9404 28.4468 11.8764 28.2791 11.7815 28.1282C11.6865 27.9774 11.5626 27.8464 11.4169 27.7429L11.3992 27.7307Z" fill="#5E60CE"/>
<path d="M14.497 29.8614C14.3519 29.7571 14.188 29.6819 14.0146 29.6401C13.8411 29.5984 13.6617 29.5909 13.4863 29.6181C13.311 29.6453 13.1433 29.7067 12.9928 29.7988C12.8423 29.8908 12.7119 30.0117 12.6092 30.1545L9.36071 34.8773C9.15512 35.1762 9.07856 35.5458 9.14786 35.9048C9.21716 36.2638 9.42664 36.5828 9.73023 36.7916C10.0338 37.0004 10.4066 37.0819 10.7667 37.0183C11.1267 36.9546 11.4445 36.7509 11.6501 36.452L14.8466 31.8048C14.951 31.6632 15.0256 31.5019 15.0662 31.3303C15.1068 31.1588 15.1126 30.9805 15.0831 30.8057C15.0537 30.6309 14.9896 30.4632 14.8947 30.3123C14.7997 30.1615 14.6758 30.0305 14.5302 29.927L14.497 29.8614Z" fill="#5E60CE"/>
</g>
<defs>
<clipPath id="clip0_12_136">
<rect width="22" height="36" fill="white" transform="translate(21.1379 0.935699) rotate(34.5216)"/>
</clipPath>
</defs>
</svg>
